<svg width="137" height="36" viewBox="0 0 137 36" fill="none" xmlns="http://www.w3.org/2000/svg">
<g clip-path="url(#clip0)">
<path d="M113.827 11.5741L117.533 9.34863C118.206 8.94461 118.749 8.35633 119.096 7.6538C119.443 6.95126 119.581 6.16405 119.492 5.38585L118.877 0L114.95 2.37351C114.257 2.79346 113.704 3.40893 113.362 4.14206C113.02 4.87518 112.903 5.69302 113.027 6.4921L113.827 11.5663" fill="#5E9ED5"/>
<path d="M117.929 11.0651L114.354 12.9349C115.899 12.8228 117.444 13.1534 118.807 13.8879L124.649 17.0405C125.821 17.6375 127.121 17.9421 128.437 17.9281C129.753 17.9141 131.047 17.5818 132.206 16.96L136.138 14.8617L135.465 14.802C134.115 14.6768 132.795 14.3321 131.557 13.7814L125.188 10.9431C124.051 10.4024 122.804 10.132 121.544 10.1531C120.284 10.1743 119.047 10.4865 117.929 11.0651Z" fill="#5E9ED5"/>
<path d="M124.211 20.9851C121.55 20.4382 119.154 19.0105 117.41 16.934L110.458 8.80591C108.373 6.29217 105.197 5.6092 102.594 6.98812L98.9458 8.93316L99.7822 9.30451C101.245 9.98497 102.478 11.0738 103.331 12.4389L109.03 20.9825C111.915 24.8778 114.763 25.6568 119.036 23.7092L124.211 20.9851Z" fill="#5E9ED5"/>
<path d="M108.008 15.4408C108.399 18.0532 109.204 20.5955 110.468 22.6652C111.883 24.0597 113.348 24.7427 115.026 24.7427C115.641 24.7382 116.254 24.658 116.85 24.5038C114.194 22.5743 112.047 19.4477 111.005 16.6535C109.924 16.5009 108.899 16.0843 108.019 15.4408" fill="#66B0E1"/>
<path d="M121.689 10.151C121.514 10.151 121.339 10.151 121.167 10.1692C120.29 11.3984 119.303 12.5457 118.218 13.597C118.421 13.6853 118.622 13.784 118.817 13.8879L124.659 17.0404C125.831 17.6379 127.131 17.9427 128.448 17.9287C129.764 17.9147 131.057 17.5822 132.216 16.9599L136.148 14.8617L135.465 14.8019C134.115 14.6768 132.795 14.332 131.557 13.7814L125.188 10.943C124.092 10.4266 122.894 10.1604 121.681 10.164" fill="#FFD857"/>
<path d="M116.032 15.3214C114.544 16.2693 113.118 16.7055 111.782 16.7055C111.52 16.7051 111.259 16.6877 111 16.6536C112.042 19.4478 114.2 22.5744 116.847 24.4935C117.601 24.3025 118.336 24.0417 119.041 23.7144L124.216 20.9903C121.556 20.4434 119.159 19.0157 117.415 16.9392L116.032 15.3214Z" fill="#A9D0EE"/>
<path d="M105.392 6.28699C104.51 6.28767 103.64 6.48463 102.844 6.86349C102.958 7.28764 103.082 7.69967 103.214 8.09958C104.313 11.3846 105.965 13.9918 108.008 15.4408C107.654 13.0893 107.64 10.6992 107.967 8.34369C108.034 7.87885 108.113 7.4244 108.204 6.97515C107.334 6.52717 106.371 6.29131 105.392 6.28699Z" fill="#79BBE7"/>
<path d="M118.877 0L114.95 2.37351C114.257 2.79346 113.704 3.40893 113.362 4.14206C113.02 4.87518 112.903 5.69302 113.027 6.4921C114.708 4.74739 116.857 3.52291 119.219 2.96559L118.877 0Z" fill="#E890AE"/>
<path d="M108.204 6.9751C108.113 7.42435 108.034 7.8788 107.967 8.34363C107.64 10.6991 107.654 13.0893 108.008 15.4408C108.891 16.0859 109.921 16.5026 111.005 16.6535C110.837 16.2174 110.693 15.7727 110.572 15.3213C110.091 13.3818 110.261 11.3383 111.057 9.50442L110.458 8.80068C109.839 8.04764 109.072 7.42898 108.204 6.98289" fill="#87C9EF"/>
<path d="M119.219 2.97862C116.857 3.53593 114.708 4.76041 113.027 6.50513L113.827 11.5742L117.533 9.34867C118.206 8.94465 118.749 8.35637 119.096 7.65384C119.443 6.9513 119.581 6.16409 119.492 5.38589L119.219 2.97083" fill="#EDA6C5"/>
<path d="M121.167 10.1692C120.04 10.2413 118.941 10.5464 117.939 11.0651L114.364 12.9348C114.559 12.9192 114.755 12.914 114.95 12.914C116.075 12.9132 117.188 13.1458 118.218 13.597C119.303 12.5457 120.29 11.3984 121.167 10.1692Z" fill="#FFF196"/>
<path d="M111.057 9.50964C110.262 11.342 110.092 13.3834 110.573 15.3214C110.693 15.7728 110.837 16.2175 111.005 16.6536C111.264 16.6877 111.525 16.705 111.787 16.7055C113.124 16.7055 114.549 16.2692 116.037 15.3214L111.057 9.50964Z" fill="#C5E9FB"/>
<path d="M9.9618 23.0313C9.69498 22.702 9.35756 22.4364 8.9743 22.2539C8.59103 22.0715 8.17165 21.9769 7.74691 21.977H8.22898C8.72868 21.9782 9.22228 21.8676 9.6733 21.6532C10.1243 21.4388 10.5212 21.1261 10.8347 20.7383L15.1733 15.3992C15.2539 15.3005 15.3048 15.1811 15.3202 15.0547C15.3356 14.9284 15.3148 14.8003 15.2604 14.6853C15.2059 14.5702 15.1199 14.4728 15.0123 14.4043C14.9047 14.3358 14.7798 14.299 14.6522 14.2981H12.2627C11.7692 14.2974 11.2817 14.4061 10.8355 14.6163C10.3893 14.8265 9.99564 15.1329 9.68299 15.5135L4.41155 21.8887V11.587C4.41151 11.0103 4.20237 10.4531 3.82267 10.0179C3.44296 9.58268 2.91825 9.29888 2.34518 9.21873L1.30288 9.05772C1.14247 9.03089 0.978109 9.03928 0.82128 9.08228C0.664452 9.12529 0.518931 9.20189 0.394873 9.30673C0.270816 9.41157 0.17121 9.54213 0.10301 9.68929C0.0348087 9.83646 -0.00034485 9.99668 2.54995e-06 10.1588V30.0895C-0.00034485 30.2516 0.0348087 30.4119 0.10301 30.559C0.17121 30.7062 0.270816 30.8367 0.394873 30.9416C0.518931 31.0464 0.664452 31.123 0.82128 31.166C0.978109 31.209 1.14247 31.2174 1.30288 31.1906L2.34518 31.0296C3.55165 30.7543 4.42979 29.8558 4.42979 28.6613V22.9326L10.7357 29.4247C11.0027 29.7495 11.3387 30.0112 11.7195 30.1908C12.1002 30.3704 12.5163 30.4636 12.9376 30.4635H15.5433C15.6706 30.4616 15.7947 30.4242 15.9017 30.3555C16.0087 30.2868 16.0942 30.1896 16.1485 30.0749C16.2028 29.9602 16.2237 29.8326 16.2088 29.7067C16.194 29.5807 16.144 29.4615 16.0645 29.3624L9.9618 23.0313Z" fill="#669BD2"/>
<path d="M19.8558 14.8279L18.4253 14.6357C18.2672 14.6142 18.1063 14.6267 17.9534 14.6723C17.8006 14.7179 17.6593 14.7956 17.5391 14.9002C17.4189 15.0047 17.3225 15.1337 17.2565 15.2785C17.1905 15.4232 17.1563 15.5804 17.1562 15.7394V29.3442C17.1563 29.5033 17.1905 29.6606 17.2565 29.8054C17.3225 29.9503 17.4189 30.0794 17.539 30.1842C17.6592 30.2889 17.8004 30.3669 17.9532 30.4128C18.1061 30.4587 18.267 30.4716 18.4253 30.4505L19.8558 30.2557C20.4324 30.1801 20.9618 29.8982 21.3453 29.4625C21.7288 29.0268 21.9403 28.467 21.9404 27.8874V17.1962C21.9398 16.6168 21.7281 16.0573 21.3447 15.6217C20.9613 15.1861 20.4322 14.904 19.8558 14.8279Z" fill="#669BD2"/>
<path d="M35.5661 8.7877L34.5238 8.94871C33.9485 9.02744 33.421 9.31026 33.0381 9.74529C32.6552 10.1803 32.4426 10.7384 32.4392 11.317V14.3138H28.1084C26.823 14.3138 25.5902 14.8227 24.6813 15.7285C23.7724 16.6343 23.2617 17.8629 23.2617 19.1439V25.636C23.2617 26.917 23.7724 28.1456 24.6813 29.0514C25.5902 29.9572 26.823 30.4661 28.1084 30.4661H32.5929H33.2808C33.6527 30.7347 34.0756 30.9247 34.5238 31.0245L35.5661 31.1855C35.7268 31.2142 35.8918 31.2071 36.0495 31.1649C36.2071 31.1226 36.3534 31.0461 36.4779 30.9409C36.6024 30.8357 36.702 30.7043 36.7696 30.5563C36.8372 30.4082 36.8712 30.2471 36.869 30.0844V9.88876C36.8693 9.72666 36.8342 9.56644 36.766 9.41927C36.6978 9.27211 36.5982 9.14155 36.4741 9.03671C36.35 8.93187 36.2045 8.85527 36.0477 8.81226C35.8909 8.76926 35.7265 8.76087 35.5661 8.7877ZM27.6837 25.0543V19.736C27.6837 19.4149 27.7472 19.0969 27.8706 18.8002C27.994 18.5036 28.1748 18.2341 28.4028 18.0072C28.6308 17.7802 28.9014 17.6003 29.1992 17.4776C29.497 17.355 29.8161 17.292 30.1383 17.2924H32.447V27.4953H30.1383C29.8163 27.4957 29.4974 27.4328 29.1998 27.3103C28.9021 27.1878 28.6316 27.0081 28.4037 26.7815C28.1758 26.5548 27.9949 26.2856 27.8713 25.9893C27.7478 25.6929 27.684 25.3752 27.6837 25.0543Z" fill="#669BD2"/>
<path d="M91.1857 35.9871L92.228 35.826C92.8048 35.7499 93.3342 35.4674 93.7177 35.0313C94.1012 34.5951 94.3126 34.035 94.3126 33.4551V30.461H98.6512C99.9366 30.461 101.169 29.9521 102.078 29.0463C102.987 28.1404 103.498 26.9119 103.498 25.6309V19.1387C103.498 17.8577 102.987 16.6292 102.078 15.7233C101.169 14.8175 99.9366 14.3086 98.6512 14.3086H94.1589H93.4709C93.1195 14.0067 92.6878 13.8127 92.228 13.7503L91.1857 13.5867C91.0252 13.5608 90.8609 13.5699 90.7043 13.6134C90.5477 13.6569 90.4024 13.7338 90.2785 13.8387C90.1546 13.9437 90.0551 14.0742 89.9868 14.2212C89.9184 14.3682 89.883 14.5283 89.8828 14.6904V34.8912C89.8832 35.0528 89.9189 35.2125 89.9875 35.359C90.056 35.5055 90.1557 35.6355 90.2797 35.7397C90.4036 35.844 90.5489 35.9201 90.7053 35.9628C90.8618 36.0055 91.0257 36.0138 91.1857 35.9871ZM99.0681 19.7204V25.0362C99.0681 25.3573 99.0046 25.6753 98.8812 25.9719C98.7578 26.2686 98.577 26.5381 98.349 26.765C98.121 26.9919 97.8504 27.1719 97.5526 27.2945C97.2548 27.4172 96.9357 27.4801 96.6135 27.4798H94.3048V17.2768H96.6135C96.9357 17.2765 97.2548 17.3394 97.5526 17.4621C97.8504 17.5847 98.121 17.7647 98.349 17.9916C98.577 18.2186 98.7578 18.4881 98.8812 18.7847C99.0046 19.0813 99.0681 19.3993 99.0681 19.7204Z" fill="#669BD2"/>
<path d="M65.0294 14.3033C60.7742 14.3033 57.3242 15.916 57.3242 22.3873C57.3242 28.8586 60.7742 30.4713 65.0294 30.4713C69.2846 30.4713 72.7347 28.8586 72.7347 22.3873C72.7347 15.916 69.2846 14.3033 65.0294 14.3033ZM65.0294 27.6225C63.3878 27.6225 62.0563 27.0694 62.0563 22.3873C62.0563 17.7052 63.3878 17.1521 65.0294 17.1521C66.6711 17.1521 68.0104 17.7052 68.0104 22.3873C68.0104 27.0694 66.6711 27.6225 65.0294 27.6225Z" fill="#669BD2"/>
<path d="M81.2658 14.3033C77.0106 14.3033 73.5605 15.916 73.5605 22.3873C73.5605 28.8586 77.0106 30.4713 81.2658 30.4713C85.521 30.4713 88.971 28.8586 88.971 22.3873C88.971 15.916 85.521 14.3033 81.2658 14.3033ZM81.2658 27.6225C79.6241 27.6225 78.2952 27.0694 78.2952 22.3873C78.2952 17.7052 79.6241 17.1521 81.2658 17.1521C82.9074 17.1521 84.2389 17.7052 84.2389 22.3873C84.2389 27.0694 82.9074 27.6225 81.2658 27.6225Z" fill="#669BD2"/>
<path d="M46.2519 20.7306H44.2012C43.7591 20.7299 43.3353 20.5546 43.0227 20.243C42.7101 19.9315 42.5342 19.5092 42.5335 19.0686C42.5331 18.8345 42.5791 18.6025 42.6688 18.3861C42.7585 18.1697 42.8901 17.973 43.0561 17.8073C43.2221 17.6416 43.4193 17.5101 43.6364 17.4204C43.8534 17.3307 44.0861 17.2846 44.321 17.2846H47.7398C48.3974 17.2822 49.0361 17.065 49.558 16.6663C50.0799 16.2677 50.4563 15.7095 50.6296 15.0773C50.6947 14.8176 50.8068 14.2982 49.8895 14.2982H42.6507C42.0544 14.2982 41.4639 14.4153 40.9131 14.6428C40.3622 14.8703 39.8616 15.2038 39.4401 15.6241C39.0186 16.0444 38.6843 16.5434 38.4563 17.0926C38.2283 17.6417 38.1112 18.2302 38.1115 18.8245V19.1803C38.1143 20.3794 38.5933 21.5287 39.4439 22.3769C40.2945 23.2251 41.4475 23.7031 42.6507 23.7066H45.0585C45.5298 23.7066 45.9818 23.8932 46.3151 24.2253C46.6483 24.5574 46.8356 25.0079 46.8356 25.4776C46.8356 26.01 46.6234 26.5206 46.2456 26.897C45.8679 27.2735 45.3555 27.485 44.8213 27.485H40.9961C40.9231 27.485 40.8554 27.485 40.7928 27.485C40.172 27.5293 39.5802 27.7648 39.0994 28.1588C38.6186 28.5528 38.2725 29.0859 38.1089 29.6845C38.0412 29.9442 37.9317 30.4635 38.8463 30.4635H46.489C47.1154 30.4635 47.7357 30.3405 48.3145 30.1016C48.8932 29.8626 49.419 29.5123 49.8618 29.0707C50.3046 28.6292 50.6558 28.105 50.8953 27.5281C51.1348 26.9513 51.2579 26.333 51.2575 25.7087C51.2507 24.3888 50.7208 23.1249 49.7832 22.1925C48.8457 21.2601 47.5764 20.7347 46.2519 20.7306Z" fill="#669BD2"/>
<path d="M56.4952 11.317C56.4946 10.7376 56.2829 10.1781 55.8995 9.74249C55.5161 9.3069 54.987 9.02483 54.4106 8.94871L53.3683 8.7877C53.2079 8.76087 53.0435 8.76926 52.8867 8.81226C52.7299 8.85527 52.5844 8.93187 52.4603 9.03671C52.3362 9.14155 52.2366 9.27211 52.1684 9.41927C52.1002 9.56644 52.0651 9.72666 52.0654 9.88876V30.0896C52.0651 30.2517 52.1002 30.4119 52.1684 30.5591C52.2366 30.7062 52.3362 30.8368 52.4603 30.9416C52.5844 31.0465 52.7299 31.1231 52.8867 31.1661C53.0435 31.2091 53.2079 31.2175 53.3683 31.1906L54.4106 31.0296C54.9852 30.9494 55.5118 30.6661 55.8944 30.2314C56.277 29.7967 56.4902 29.2395 56.4952 28.6613V11.317Z" fill="#669BD2"/>
</g>
<defs>
<clipPath id="clip0">
<rect width="136.145" height="36" fill="white"/>
</clipPath>
</defs>
</svg>
