<svg width="960" height="496" viewBox="0 0 960 496" fill="none" xmlns="http://www.w3.org/2000/svg">
<path d="M308.431 269C308.431 269 0.736534 269 4.30913 268.336C-14.4188 268.106 -32.2191 254.301 -37.4088 235.962C-42.5984 217.624 -34.7387 196.284 -19.0068 185.94C-4.06453 176.119 19.0759 180.436 33.5793 191.482C34.5696 192.236 35.9987 191.648 36.1742 190.397C41.2009 154.192 72.3765 120.746 108.228 121.001C141.359 121.231 169.125 154.179 176.684 187.996C177.285 190.691 180.795 191.163 182.087 188.724C188.718 176.285 202.67 164.294 214.328 164.153C229.307 163.987 243.372 173.003 252.435 185.148C260.796 196.348 265.447 209.923 268.518 223.69C268.844 225.158 270.587 225.771 271.727 224.814C282.959 215.389 301.75 216.449 311.414 227.764C321.819 239.934 319.199 261.184 308.431 269Z" fill="#ABCAEB"/>
<path d="M1089.51 385C1089.51 385 784.403 385 787.945 384.336C769.375 384.106 751.724 370.301 746.578 351.962C741.432 333.624 749.225 312.284 764.825 301.94C779.642 292.119 802.588 296.436 816.969 307.482C817.951 308.236 819.368 307.648 819.542 306.397C824.527 270.192 855.441 236.746 890.991 237.001C923.843 237.231 951.376 270.179 958.871 303.996C959.468 306.691 962.948 307.163 964.229 304.724C970.804 292.285 984.639 280.294 996.199 280.153C1011.05 279.987 1025 289.003 1033.99 301.148C1042.28 312.348 1046.89 325.923 1049.93 339.69C1050.26 341.158 1051.99 341.771 1053.12 340.814C1064.25 331.389 1082.89 332.449 1092.47 343.764C1102.79 355.934 1100.19 377.184 1089.51 385Z" fill="#ABCAEB"/>
<path d="M839.431 147C839.431 147 531.737 147 535.309 146.34C516.581 146.112 498.781 132.4 493.591 114.186C488.402 95.971 496.261 74.7755 511.993 64.5012C526.935 54.7469 550.076 59.0342 564.579 70.0062C565.57 70.7545 566.999 70.1711 567.174 68.928C572.201 32.968 603.376 -0.252243 639.228 0.00144362C672.359 0.229761 700.125 32.9553 707.684 66.5434C708.285 69.2198 711.795 69.6891 713.087 67.2664C719.718 54.9119 733.67 43.0013 745.328 42.8617C760.307 42.6968 774.372 51.652 783.435 63.7148C791.796 74.8389 796.447 88.3223 799.518 101.996C799.844 103.455 801.587 104.064 802.727 103.112C813.959 93.7512 832.75 94.804 842.414 106.042C852.819 118.13 850.199 139.237 839.431 147Z" fill="#ABCAEB"/>
<path d="M401.581 486.616C401.719 487.348 401.71 488.102 401.554 488.83C401.399 489.558 401.1 490.244 400.677 490.843C400.254 491.443 399.717 491.943 399.099 492.311C398.482 492.679 397.798 492.907 397.092 492.98L371.985 495.953C371.283 496.052 370.569 495.993 369.891 495.781C369.212 495.569 368.583 495.209 368.046 494.723C367.509 494.238 367.076 493.638 366.775 492.964C366.474 492.29 366.311 491.557 366.299 490.812L365.567 473.326V472.207C365.531 470.632 366.051 469.098 367.028 467.903C368.004 466.708 369.368 465.936 370.855 465.738L391.871 463.22C393.383 463.03 394.907 463.447 396.14 464.387C397.372 465.327 398.223 466.72 398.522 468.29L398.721 469.375L401.581 486.616Z" fill="#962623"/>
<path d="M363.782 428.929L361.726 429.34L368.12 464.691L370.176 464.279L363.782 428.929Z" fill="#480E00"/>
<path d="M370.681 428.103L368.635 428.57L376.855 468.383L378.901 467.916L370.681 428.103Z" fill="#480E00"/>
<path d="M381.221 425.87L379.144 426.143L384.469 470.977L386.546 470.704L381.221 425.87Z" fill="#480E00"/>
<path d="M390.477 426.203L388.387 426.324L390.631 469.204L392.721 469.083L390.477 426.203Z" fill="#480E00"/>
<path d="M398.555 469.551L365.567 473.468V472.349C365.531 470.773 366.051 469.24 367.028 468.045C368.004 466.849 369.368 466.078 370.855 465.879L391.871 463.361C393.383 463.172 394.907 463.589 396.14 464.528C397.372 465.468 398.223 466.862 398.522 468.432L398.555 469.551Z" fill="#411819"/>
<path d="M464.531 252.344C454.222 209.084 421.666 180.233 377.472 175.407C374.778 175.092 371.985 174.882 369.026 174.742C362.873 174.502 356.713 174.595 350.57 175.022C349.007 175.022 347.244 175.022 345.881 175.372C337.59 176.063 329.369 177.49 321.306 179.638L319.943 180.058C301.918 185.939 285.801 196.968 273.387 211.917C260.518 228.353 252.271 253.253 251.806 276.929C250.741 332.533 292.841 369.428 323.567 396.391L328.888 401.077C340.461 411.206 350.763 422.839 359.548 435.698C359.969 436.33 360.577 436.797 361.277 437.027C361.644 437.142 362.025 437.201 362.408 437.202H362.674L391.239 434.299C391.847 434.234 392.427 433.995 392.914 433.606C393.401 433.217 393.776 432.695 393.999 432.096C399.89 417.308 407.532 403.36 416.745 390.585L420.735 385.095C444.645 351.802 477.4 306.444 464.531 252.344Z" fill="#2F50BA"/>
<path d="M387.217 431.013L381.331 431.607L372.153 432.551L366.101 433.146C346.98 391.495 306.244 359.706 287.754 330.33C278.952 316.221 273.722 299.983 272.558 283.153C271.394 266.323 274.335 249.459 281.104 234.159C287.974 218.703 297.748 204.868 309.835 193.488C313.825 189.734 318.023 186.231 322.405 182.996C330.16 180.872 338.068 179.422 346.049 178.66L350.671 178.31C356.923 177.89 363.041 177.855 368.794 178.065C371.554 178.065 374.281 178.38 377.008 178.695C380.077 179.768 383.067 181.078 385.953 182.611C400.356 190.563 413.099 201.467 423.43 214.68C434.117 228.932 441.26 245.758 444.214 263.64C453.226 325.469 399.488 373.625 387.217 431.013Z" fill="#F9FAFB"/>
<path d="M402.579 302.841C399.254 332.567 388.746 362.048 383.824 390.27C381.247 403.87 380.409 417.772 381.33 431.606L372.152 432.55C370.274 421.517 367.367 410.705 363.473 400.271C345.948 355.368 332.314 339.561 321.54 308.542C310.3 276.298 307.706 247.377 318.946 216.078C324.232 201.043 333.67 188.013 346.048 178.658L350.67 178.309C364.703 186.002 375.976 198.907 383.525 209.013C408.864 243.006 404.009 290.112 402.579 302.841Z" fill="#2F50BA"/>
<path d="M371.653 433.249V432.655C369.768 421.673 366.872 410.909 363.007 400.516C356.018 382.787 348.046 365.505 339.13 348.759C332.104 335.959 326.055 322.593 321.04 308.787C308.803 273.605 308.005 244.964 318.446 215.833C323.814 200.662 333.382 187.531 345.914 178.134H346.18C347.743 177.959 349.273 177.854 350.836 177.784C363.803 185.493 375.069 196.006 383.89 208.629C400.783 231.36 407.367 263.953 403.011 303.051C400.69 320.342 397.212 337.439 392.603 354.214C389.277 366.734 386.417 378.694 384.356 390.375C381.808 403.92 380.97 417.76 381.862 431.536V432.2L371.653 433.249ZM346.346 179.323C334.082 188.556 324.716 201.426 319.444 216.287C309.102 245.104 309.9 273.5 322.004 308.332C327.011 322.074 333.037 335.381 340.028 348.129C349 364.914 357.017 382.243 364.037 400.027C367.883 410.319 370.778 420.976 372.683 431.851L380.631 431.011C379.814 417.337 380.674 403.608 383.192 390.165C385.287 378.24 388.413 365.685 391.439 353.865C396.092 337.116 399.614 320.042 401.98 302.771C406.303 264.303 399.785 231.85 383.125 209.433C374.44 196.989 363.358 186.61 350.603 178.973C349.372 179.078 347.81 179.148 346.346 179.323Z" fill="#2F50BA"/>
<path d="M398.914 459.672L362.865 463.965L363.718 471.888L399.767 467.595L398.914 459.672Z" fill="#962623"/>
<path d="M463.897 263.079L463.464 262.59C463.348 262.469 463.205 262.381 463.049 262.332C462.892 262.283 462.726 262.276 462.566 262.31C462.44 262.327 462.319 262.371 462.209 262.439C462.1 262.507 462.005 262.597 461.93 262.706C461.855 262.814 461.802 262.937 461.775 263.067C461.747 263.198 461.745 263.333 461.768 263.464C462.005 264.268 462.03 265.125 461.843 265.943C461.656 266.762 461.262 267.512 460.704 268.115C459.273 269.205 457.579 269.848 455.816 269.969C451.953 270.311 448.063 270.04 444.277 269.164C443.968 269.093 443.646 269.133 443.362 269.279C443.078 269.425 442.849 269.668 442.714 269.969C441.33 273.157 438.995 275.785 436.063 277.453C432.965 279.123 429.564 280.077 426.087 280.25C422.532 280.477 418.965 280.301 415.446 279.726C411.907 279.149 408.415 278.284 405.004 277.138C404.755 277.028 404.482 276.995 404.216 277.045C403.951 277.095 403.705 277.224 403.508 277.418C400.512 280.1 397.258 282.444 393.797 284.412C390.348 286.502 386.758 288.326 383.056 289.867C375.582 293.045 367.764 295.241 359.779 296.407C351.89 297.81 343.853 298.045 335.902 297.107C331.957 296.667 328.06 295.836 324.263 294.624C320.491 293.554 316.876 291.942 313.522 289.832H313.29C313.065 289.687 312.806 289.61 312.541 289.61C312.277 289.61 312.018 289.687 311.793 289.832C308.446 291.617 304.991 293.171 301.451 294.484C297.94 295.835 294.324 296.864 290.644 297.561C287.085 298.277 283.429 298.277 279.869 297.561C278.248 297.261 276.708 296.596 275.354 295.612C273.999 294.628 272.863 293.349 272.022 291.861C271.784 291.434 271.404 291.115 270.955 290.966C270.507 290.818 270.021 290.85 269.594 291.056C266.622 292.664 263.456 293.84 260.183 294.554C258.741 294.916 257.231 294.843 255.827 294.344C254.73 293.854 254.331 292.385 254.464 290.847C254.465 290.671 254.422 290.498 254.341 290.345C254.259 290.192 254.141 290.063 253.998 289.972C253.789 289.855 253.546 289.826 253.317 289.891C253.088 289.956 252.892 290.11 252.768 290.322V290.602C252.188 291.584 251.931 292.739 252.036 293.889C252.13 294.595 252.365 295.271 252.727 295.874C253.088 296.477 253.566 296.992 254.131 297.386C256.127 298.648 258.485 299.119 260.782 298.715C263.776 298.314 266.667 297.305 269.295 295.743C269.887 297.439 270.856 298.962 272.121 300.184C274.03 301.908 276.315 303.11 278.772 303.681C283.161 304.703 287.716 304.631 292.074 303.471C294.1 302.969 296.098 302.351 298.059 301.618C299.955 300.848 301.817 300.009 303.613 299.065C306.868 297.334 309.935 295.235 312.758 292.805C319.255 298.299 327.004 301.916 335.237 303.296C339.538 304.129 343.9 304.562 348.273 304.59C352.615 304.564 356.95 304.201 361.242 303.506C369.786 302.169 378.078 299.431 385.816 295.393C389.629 293.381 393.277 291.042 396.724 288.399C399.811 285.945 402.632 283.142 405.137 280.041C408.269 281.894 411.625 283.294 415.113 284.202C418.985 285.26 422.99 285.685 426.985 285.461C431.285 285.316 435.467 283.951 439.089 281.509C440.703 280.427 442.098 279.021 443.194 277.371C444.289 275.72 445.064 273.858 445.474 271.892C447 272.54 448.581 273.031 450.196 273.361C452.389 273.788 454.627 273.893 456.847 273.676C459.503 273.522 462.028 272.411 463.996 270.528C465.035 269.358 465.627 267.827 465.659 266.227C465.418 265.002 464.798 263.895 463.897 263.079Z" fill="#142884"/>
</svg>
