<svg width="960" height="258" viewBox="0 0 960 258" fill="none" xmlns="http://www.w3.org/2000/svg">
<path d="M-425.632 258H363.191C382.163 236.554 393.406 206.418 377.244 183.991C361.083 161.564 330.446 161.143 303.744 162.265C303.636 150.303 299.751 138.679 292.642 129.045C285.679 119.43 275.839 112.265 264.535 108.58C253.219 105.105 241.104 105.192 229.838 108.829C218.573 112.465 208.705 119.475 201.576 128.905C204.217 101.992 197.467 74.9941 182.466 52.4691C167.464 29.9441 145.13 13.2714 119.233 5.26567C93.3365 -2.7401 65.4635 -1.58862 40.3192 8.52564C15.1749 18.6399 -5.70081 37.0975 -18.7833 60.7827C-25.5526 49.6765 -35.5355 40.8756 -47.4178 35.5392C-59.3001 30.2027 -72.5241 28.5809 -85.3487 30.8873C-98.1732 33.1936 -109.997 39.3199 -119.262 48.4595C-128.528 57.5991 -134.8 69.3235 -137.254 82.0884C-147.177 65.1956 -160.683 50.6712 -176.827 39.5332C-192.971 28.3952 -211.361 20.9129 -230.71 17.6106C-272.87 10.8825 -308.847 29.525 -346.089 44.3829C-387.292 58.1871 -421.927 86.6916 -443.339 124.419C-454.309 145.138 -458.831 168.651 -456.328 191.948C-453.824 215.245 -444.408 237.267 -429.286 255.197L-425.632 258Z" fill="#8FC048"/>
<path d="M423 278H1174.4C1176.05 274.361 1176.93 270.427 1177 266.439C1177.06 262.451 1176.3 258.491 1174.76 254.803C1174.4 253.936 1173.96 252.997 1173.52 252.13C1168.9 243.995 1161.32 237.897 1152.33 235.067C1143.34 232.237 1133.6 232.886 1125.07 236.882C1127.68 229.282 1128.09 221.109 1126.24 213.291C1124.4 205.473 1120.37 198.325 1114.62 192.657C1107.08 186.028 1097.46 182.172 1087.39 181.737C1077.31 181.303 1067.39 184.317 1059.3 190.272C1064.41 186.352 1068.63 181.41 1071.68 175.768C1074.74 170.126 1076.55 163.911 1077.01 157.529C1077.47 151.147 1076.56 144.741 1074.35 138.728C1072.14 132.716 1068.67 127.232 1064.17 122.634C1059.67 118.036 1054.24 114.428 1048.24 112.045C1042.23 109.661 1035.79 108.556 1029.32 108.802C1022.85 109.047 1016.51 110.638 1010.71 113.469C1004.91 116.301 999.776 120.31 995.646 125.236C997.288 116.402 996.286 107.287 992.762 99.0097C989.238 90.7321 983.346 83.6525 975.809 78.6406C968.272 73.6287 959.419 70.9026 950.337 70.7972C941.255 70.6919 932.34 73.212 924.686 78.0477C921.567 67.7397 915.558 58.5164 907.356 51.4465C899.153 44.3766 889.093 39.7494 878.34 38.1008C867.588 36.4522 856.583 37.8499 846.601 42.1317C836.618 46.4135 828.067 53.4043 821.937 62.2943C818.6 53.9889 813.617 46.4271 807.281 40.0532C800.946 33.6793 793.386 28.6219 785.046 25.1782C776.705 21.7346 767.753 19.9741 758.715 20.0003C749.677 20.0265 740.736 21.8389 732.416 25.3309C724.097 28.823 716.567 33.9242 710.27 40.3348C703.972 46.7454 699.034 54.336 695.746 62.6606C692.457 70.9852 690.885 79.8758 691.12 88.8099C691.356 97.744 693.396 106.541 697.119 114.685C693.171 105.547 686.418 97.8675 677.816 92.7307C669.214 87.5939 659.197 85.2601 649.181 86.0589C639.164 86.8577 629.655 90.7486 621.996 97.1821C614.338 103.616 608.917 112.266 606.501 121.911C598.798 114.366 588.98 109.284 578.321 107.325C567.661 105.367 556.652 106.622 546.722 110.927C534.667 117.266 525.425 127.81 520.792 140.511C516.16 153.211 516.468 167.161 521.656 179.65C512.342 175.95 502.172 174.876 492.277 176.547C482.382 178.218 473.15 182.569 465.605 189.116C446.677 207.182 445.216 241.435 466.628 265.643C458.884 264.332 450.941 264.762 443.389 266.901C435.836 269.04 428.867 272.834 423 278Z" fill="#8FC048"/>
</svg>
